<?xml version="1.0" encoding="UTF-8" standalone="no"?>
<svg
   xmlns:dc="http://purl.org/dc/elements/1.1/"
   xmlns:cc="http://creativecommons.org/ns#"
   xmlns:rdf="http://www.w3.org/1999/02/22-rdf-syntax-ns#"
   xmlns:svg="http://www.w3.org/2000/svg"
   xmlns="http://www.w3.org/2000/svg"
   xmlns:sodipodi="http://sodipodi.sourceforge.net/DTD/sodipodi-0.dtd"
   xmlns:inkscape="http://www.inkscape.org/namespaces/inkscape"
   viewBox="0 0 100 100.00191"
   height="100.00191"
   width="100"
   xml:space="preserve"
   version="1.1"
   id="svg2"
   inkscape:version="0.91 r13725"
   sodipodi:docname="symbol-of-access-100x100.svg"><sodipodi:namedview
     pagecolor="#ffffff"
     bordercolor="#666666"
     borderopacity="1"
     objecttolerance="10"
     gridtolerance="10"
     guidetolerance="10"
     inkscape:pageopacity="0"
     inkscape:pageshadow="2"
     inkscape:window-width="664"
     inkscape:window-height="480"
     id="namedview4198"
     showgrid="false"
     fit-margin-top="0"
     fit-margin-left="0"
     fit-margin-right="0"
     fit-margin-bottom="0"
     inkscape:zoom="0.32803405"
     inkscape:cx="49.999994"
     inkscape:cy="50.000325"
     inkscape:window-x="0"
     inkscape:window-y="0"
     inkscape:window-maximized="0"
     inkscape:current-layer="svg2" /><metadata
     id="metadata8"><rdf:RDF><cc:Work
         rdf:about=""><dc:format>image/svg+xml</dc:format><dc:type
           rdf:resource="http://purl.org/dc/dcmitype/StillImage" /><dc:title></dc:title></cc:Work></rdf:RDF></metadata><defs
     id="defs6" /><g
     transform="matrix(1.25,0,0,-1.25,-309.7125,409.72034)"
     id="g10"><g
       transform="matrix(0.01389999,0,0,0.01389999,247.77,247.77474)"
       id="g12"><path
         id="path14"
         style="fill:#ffffff;fill-opacity:1;fill-rule:nonzero;stroke:none"
         d="m 516.172,5748.01 4723.048,0 c 279.77,0 508.68,-228.9 508.68,-508.62 l 0,-4723.101 C 5747.9,236.398 5518.99,7.5 5239.22,7.5 L 516.172,7.5 C 236.453,7.5 7.5,236.398 7.5,516.289 l 0,4723.101 c 0,279.72 228.953,508.62 508.672,508.62"
         inkscape:connector-curvature="0" /><path
         id="path16"
         style="fill:none;stroke:#231f20;stroke-width:15;stroke-linecap:butt;stroke-linejoin:miter;stroke-miterlimit:4;stroke-dasharray:none;stroke-opacity:1"
         d="m 516.172,5748.01 4723.048,0 c 279.77,0 508.68,-228.9 508.68,-508.62 l 0,-4723.101 C 5747.9,236.398 5518.99,7.5 5239.22,7.5 L 516.172,7.5 C 236.453,7.5 7.5,236.398 7.5,516.289 l 0,4723.101 c 0,279.72 228.953,508.62 508.672,508.62 z"
         inkscape:connector-curvature="0" /><path
         id="path18"
         style="fill:#15569c;fill-opacity:1;fill-rule:evenodd;stroke:none"
         d="m 516.172,5602.5 4723.048,0 c 200,0 363.4,-163.39 363.4,-363.11 l 0,-4723.101 c 0,-199.949 -163.4,-363.457 -363.4,-363.457 l -4723.048,0 c -199.777,0 -363.395,163.508 -363.395,363.457 l 0,4723.101 c 0,199.72 163.618,363.11 363.395,363.11"
         inkscape:connector-curvature="0" /><path
         id="path20"
         style="fill:#ffffff;fill-opacity:1;fill-rule:evenodd;stroke:none"
         d="m 2286.11,4342.69 c 205.96,19.03 365.94,196.43 365.94,403.94 0,223.31 -182.19,405.44 -405.33,405.44 -223.42,0 -405.61,-182.13 -405.61,-405.44 0,-68.11 19.03,-137.84 50.69,-196.5 l 144.53,-2032.97 1488.09,-0.52 610.23,-1430.01 801.37,314.27 -124.11,295.44 -448.53,-161.77 -590.39,1363.28 -1383.7,-9.23 -18.91,257.4 1001.61,-0.34 0,380.87 -1039.8,0.52 -46.08,815.62"
         inkscape:connector-curvature="0" /><path
         id="path22"
         style="fill:#ffffff;fill-opacity:1;fill-rule:evenodd;stroke:none"
         d="m 3782.8,1426.96 c -251,-496.409 -776.87,-823.569 -1337.51,-823.569 -823.57,0 -1495.294,671.759 -1495.294,1495.339 0,578.12 350.424,1115.52 873.404,1353.71 l 33.79,-441.54 c -309.24,-194.95 -499.91,-546.64 -499.91,-915.28 0,-597.38 487.34,-1084.72 1084.84,-1084.72 546.51,0 1012.5,419.39 1076.07,957.6 l 264.61,-541.54"
         inkscape:connector-curvature="0" /></g></g></svg>